<svg width="112" height="112" viewBox="0 0 112 112" fill="none" xmlns="http://www.w3.org/2000/svg">
<path d="M55.8942 94.3703C77.1206 94.3703 94.328 77.1629 94.328 55.9365C94.328 34.7101 77.1206 17.5026 55.8942 17.5026C34.6678 17.5026 17.4603 34.7101 17.4603 55.9365C17.4603 77.1629 34.6678 94.3703 55.8942 94.3703Z" fill="#00A0EA"/>
<path d="M55.9788 111.556C25.3333 111.556 0.4021 86.6243 0.4021 55.9788C0.4021 25.3333 25.3333 0.4021 55.9788 0.4021C86.6243 0.4021 111.556 25.3333 111.556 55.9788C111.556 86.6243 86.6243 111.556 55.9788 111.556ZM55.9788 1.24866C45.1542 1.24866 34.5727 4.45853 25.5724 10.4724C16.572 16.4862 9.55714 25.0339 5.41475 35.0345C1.27235 45.0351 0.18851 56.0395 2.30029 66.6562C4.41206 77.2728 9.6246 87.0247 17.2788 94.6789C24.9329 102.333 34.6849 107.546 45.3015 109.657C55.9181 111.769 66.9225 110.685 76.9231 106.543C86.9238 102.4 95.4715 95.3856 101.485 86.3853C107.499 77.3849 110.709 66.8034 110.709 55.9788C110.709 48.7916 109.293 41.6747 106.543 35.0345C103.792 28.3943 99.7611 22.3609 94.6789 17.2788C89.5967 12.1966 83.5633 8.16519 76.9231 5.41475C70.283 2.6643 63.1661 1.24866 55.9788 1.24866Z" fill="#231F20"/>
<path d="M55.9788 108.339C45.623 108.339 35.4998 105.268 26.8893 99.5144C18.2788 93.761 11.5677 85.5835 7.60469 76.016C3.6417 66.4485 2.60481 55.9207 4.62512 45.7639C6.64543 35.6071 11.6322 26.2775 18.9549 18.9549C26.2775 11.6322 35.6071 6.64543 45.7639 4.62512C55.9207 2.60481 66.4485 3.6417 76.016 7.60469C85.5835 11.5677 93.761 18.2788 99.5144 26.8893C105.268 35.4998 108.339 45.623 108.339 55.9788C108.339 69.8655 102.822 83.1834 93.0028 93.0028C83.1834 102.822 69.8655 108.339 55.9788 108.339ZM55.9788 4.08465C45.7068 4.08465 35.6654 7.13067 27.1244 12.8375C18.5835 18.5444 11.9267 26.6558 7.99575 36.1459C4.0648 45.6361 3.03629 56.0788 5.04027 66.1535C7.04425 76.2282 11.9907 85.4824 19.2542 92.7458C26.5176 100.009 35.7718 104.956 45.8465 106.96C55.9212 108.964 66.3639 107.935 75.8541 104.004C85.3442 100.073 93.4556 93.4164 99.1625 84.8755C104.869 76.3346 107.915 66.2932 107.915 56.0212C107.915 42.2428 102.445 29.0282 92.7061 19.2815C82.9673 9.53482 69.7571 4.05354 55.9788 4.04232V4.08465Z" fill="#231F20"/>
<path d="M52.5503 100.466C52.6407 100.742 52.7114 101.025 52.7619 101.312C52.8461 101.702 52.8886 102.099 52.8889 102.497C52.9453 102.497 52.9877 102.37 53.0159 102.116C53.0932 101.726 53.1075 101.326 53.0582 100.931C53.0533 100.513 52.9818 100.099 52.8466 99.7037C52.6773 99.3227 52.5926 99.1111 52.5079 99.1111C52.4233 99.1111 52.4656 99.2381 52.381 99.4497C52.3126 99.5665 52.2694 99.6962 52.254 99.8307C52.2569 99.9089 52.2868 99.9837 52.3386 100.042L52.5503 100.466Z" fill="#231F20"/>
<path d="M54.4973 102.455H54.5396C54.6233 102.166 54.6661 101.867 54.6666 101.566C54.6581 101.107 54.5869 100.651 54.455 100.212L54.709 100.127L54.8783 99.9576H55.1746C55.2557 99.9563 55.3348 99.9316 55.4023 99.8866C55.4699 99.8416 55.5231 99.7781 55.5555 99.7037C55.6506 99.5193 55.7082 99.3179 55.7248 99.1111H55.6402C55.6402 99.1439 55.6325 99.1763 55.6178 99.2057C55.6031 99.2351 55.5818 99.2607 55.5555 99.2804L55.4285 99.365H55.0899L55.0053 99.2804L54.9206 99.1111H54.8783C54.8466 99.1983 54.7871 99.2726 54.709 99.3227L54.455 99.4074L54.1587 99.3227C54.074 99.2381 53.9894 99.1957 53.9471 99.1111H53.8624C53.7726 99.3304 53.7018 99.5569 53.6508 99.7883V99.9153C54.1711 100.663 54.465 101.545 54.4973 102.455Z" fill="#231F20"/>
<path d="M56.2328 99.9576L56.5714 100.339L56.8254 100.762C56.9125 100.894 56.9836 101.036 57.037 101.185C57.1119 101.333 57.1687 101.489 57.2063 101.651C57.2487 101.778 57.2487 101.947 57.291 102.074C57.2843 102.202 57.2986 102.331 57.3333 102.455H57.418V102.074C57.4603 101.947 57.4603 101.778 57.5026 101.651L57.6296 101.185L57.7989 100.762L58.0529 100.339L58.3915 99.9576V99.873C58.3915 99.7883 58.4338 99.7037 58.4338 99.619V99.4074C58.4338 99.3227 58.4338 99.2804 58.4762 99.2381V99.1534H58.4338L58.0106 99.5767C57.8832 99.7359 57.7699 99.9058 57.6719 100.085C57.5835 100.246 57.5125 100.416 57.4603 100.593C57.392 100.743 57.3354 100.899 57.291 101.058C57.2359 100.716 57.1212 100.387 56.9524 100.085C56.8695 99.9065 56.7703 99.7365 56.6561 99.5767L56.2328 99.1111H56.1905C56.1905 99.1111 56.1905 99.4497 56.1481 99.9153H56.1905L56.2328 99.9576Z" fill="#231F20"/>
<path d="M59.4074 100.466C59.4978 100.742 59.5685 101.025 59.619 101.312C59.7032 101.702 59.7457 102.099 59.746 102.497C59.8024 102.497 59.8448 102.37 59.873 102.116C59.9503 101.726 59.9646 101.326 59.9153 100.931C59.9104 100.513 59.8389 100.099 59.7037 99.7037C59.5344 99.3227 59.4497 99.1111 59.4074 99.1111C59.3651 99.1111 59.3227 99.2381 59.2381 99.4497C59.1697 99.5665 59.1265 99.6962 59.1111 99.8307C59.114 99.9089 59.1439 99.9837 59.1957 100.042L59.4074 100.466Z" fill="#231F20"/>
<path d="M40.1058 59.5767V54.2857L41.291 48.8677L45.4391 43.6614L50.4338 40.9947L55.7248 40.1481L61.2275 40.6561L64.9947 43.0264L68.5926 45.9894L70.4973 49.291L71.8518 53.0159V55.4709L60.3386 57.5026L42.1375 59.9153L40.1058 59.5767Z" fill="#FEED01"/>
<path d="M76 52.5926C74.7672 52.6386 73.5379 52.7516 72.3174 52.9312C72.2751 52.8466 72.2751 52.7196 72.2328 52.6349L93.1428 46.6243L92.8042 45.4392L71.9365 51.4074C71.6652 50.461 71.3111 49.5403 70.8783 48.6561L89.7143 37.6508L89.0793 36.5503L70.2857 47.5556C69.6951 46.5775 69.0149 45.6565 68.2539 44.8042L83.4074 29.1852L82.5185 28.2963L67.3227 43.9154C66.5062 43.1057 65.5969 42.3953 64.6137 41.799L75.746 22.9206L74.6455 22.2857L63.4709 41.164C62.5451 40.7033 61.5823 40.321 60.5926 40.0212L66.2222 18.8148L64.9947 18.5185L59.3227 39.7249C58.3212 39.5078 57.2999 39.3943 56.2751 39.3863L56.4444 17.545H55.1746L55.0053 39.4286C54.0646 39.4722 53.1297 39.5997 52.2116 39.8095L46.0741 18.4762L44.8465 18.8572L50.9841 40.1058C49.9475 40.4414 48.942 40.8663 47.9788 41.3757L36.8465 22.2434L35.746 22.8783L46.8783 42.0529C46.006 42.6308 45.1847 43.2822 44.4233 44L28.6349 28.5079L27.746 29.4392L43.5344 44.9312C42.787 45.7843 42.1209 46.7055 41.5449 47.6826L22.582 36.381L21.9471 37.4815L40.9524 48.7831C40.533 49.6683 40.193 50.589 39.9365 51.5344L18.6878 45.5661L18.3069 46.7937L39.6402 52.8042C39.4206 53.8626 39.3072 54.9403 39.3016 56.0212C39.2947 56.8427 39.3513 57.6634 39.4709 58.4762C31.7275 58.4274 24.1881 55.9882 17.8836 51.4921L17.2487 57.672L17.9682 63.4709C17.9682 63.4709 25.6719 68.3386 33.1217 68.8466C37.1383 69.172 41.1763 69.1295 45.1852 68.7196L46.8783 68.4656C47.727 68.3047 48.5619 68.0783 49.3756 67.7884L49.2487 69.8624L49.164 71.2169L48.9524 74.8572L43.2804 81.2064L50.0529 87.4709L57.164 80.5291L50.3492 74.2646C51.1595 73.5827 52.0074 72.9468 52.8889 72.3598L54.582 71.3016C55.9362 70.5398 57.3356 69.8613 58.7725 69.2699C61.4438 68.1609 64.2052 67.2829 67.0264 66.6455L69.0582 66.2222C71.3878 65.7784 73.7555 65.5657 76.127 65.5873L93.0582 65.164L93.9894 59.1535V52.6773C93.9894 52.6773 82.8148 52.4233 76 52.5926ZM62.4973 55.9788L63.1746 50.7725C63.1746 50.7725 56.3598 57.418 41.8836 58.3915L40.783 58.4762C40.6286 57.6673 40.5577 56.8446 40.5714 56.0212C40.5713 51.9568 42.1771 48.057 45.0391 45.1711C47.9012 42.2853 51.7876 40.6473 55.8518 40.6138H56.1481C59.7002 40.6703 63.1237 41.9525 65.8389 44.2435C68.554 46.5344 70.3941 49.6933 71.0476 53.1852C68.1041 53.8018 65.237 54.7386 62.4973 55.9788Z" fill="white"/>
<path d="M55.8095 94.455C48.1644 94.4634 40.6885 92.204 34.3277 87.9627C27.9669 83.7213 23.007 77.6887 20.0755 70.6279C17.1441 63.5671 16.3727 55.7954 17.8591 48.2961C19.3454 40.7968 23.0227 33.9069 28.4257 28.498C33.8287 23.0891 40.7146 19.4043 48.2122 17.9097C55.7099 16.4151 63.4824 17.1779 70.5464 20.1017C77.6104 23.0254 83.6485 27.9787 87.8968 34.3348C92.1451 40.691 94.4127 48.1644 94.4127 55.8095C94.4015 66.0482 90.3322 75.8649 83.0963 83.1087C75.8604 90.3525 66.0482 94.4326 55.8095 94.455ZM55.8095 17.6296C48.2481 17.6212 40.854 19.8558 34.5629 24.0506C28.2717 28.2454 23.366 34.212 20.4666 41.1955C17.5672 48.1789 16.8042 55.8655 18.2742 63.2826C19.7442 70.6998 23.3812 77.5143 28.725 82.864C34.0688 88.2138 40.8793 91.8583 48.2948 93.3365C55.7104 94.8148 63.3977 94.0603 70.3844 91.1686C77.3711 88.2769 83.3431 83.3779 87.5449 77.0914C91.7467 70.8048 93.9894 63.4133 93.9894 55.8518C93.9894 45.722 89.9683 36.0064 82.8094 28.8396C75.6505 21.6727 65.9394 17.6408 55.8095 17.6296Z" fill="#231F20"/>
</svg>
